<svg width="30" height="30" viewBox="0 0 30 30" fill="none" xmlns="http://www.w3.org/2000/svg">
<path d="M26.0879 0H3.26099C1.46744 0 0 1.49993 0 3.33317V26.6654C0 28.5003 1.46744 29.9985 3.26099 29.9985H14.6744V18.3324H11.4135V14.2076H14.6744V10.7911C14.6744 7.18465 16.6506 4.65144 20.8149 4.65144L23.7547 4.65477V8.99623H21.803C20.1822 8.99623 19.5659 10.2395 19.5659 11.3928V14.2093H23.753L22.8269 18.3324H19.5659V29.9985H26.0879C27.8814 29.9985 29.3489 28.5003 29.3489 26.6654V3.33317C29.3489 1.49993 27.8814 0 26.0879 0Z" fill="black"/>
</svg>
