<svg width="30" height="30" viewBox="0 0 30 30" fill="none" xmlns="http://www.w3.org/2000/svg">
<path d="M14.996 9.98534C12.2417 9.98534 9.99393 12.2303 9.99393 14.9812C9.99393 17.7321 12.2417 19.9771 14.996 19.9771C17.7503 19.9771 19.998 17.7321 19.998 14.9812C19.998 12.2303 17.7503 9.98534 14.996 9.98534ZM29.9983 14.9812C29.9983 12.9124 30.0171 10.8623 29.9008 8.79728C29.7844 6.39866 29.2366 4.2699 27.4804 2.51591C25.7205 0.758177 23.5929 0.214741 21.1913 0.0985584C19.1199 -0.0176244 17.0673 0.00111477 14.9997 0.00111477C12.9284 0.00111477 10.8758 -0.0176244 8.80815 0.0985584C6.40658 0.214741 4.27517 0.761925 2.51902 2.51591C0.759114 4.27364 0.215007 6.39866 0.0986802 8.79728C-0.0176462 10.8661 0.00111615 12.9161 0.00111615 14.9812C0.00111615 17.0463 -0.0176462 19.1001 0.0986802 21.1651C0.215007 23.5637 0.762867 25.6925 2.51902 27.4465C4.27893 29.2042 6.40658 29.7477 8.80815 29.8638C10.8795 29.98 12.9321 29.9613 14.9997 29.9613C17.0711 29.9613 19.1237 29.98 21.1913 29.8638C23.5929 29.7477 25.7243 29.2005 27.4804 27.4465C29.2403 25.6888 29.7844 23.5637 29.9008 21.1651C30.0208 19.1001 29.9983 17.05 29.9983 14.9812ZM14.996 22.668C10.7369 22.668 7.29966 19.235 7.29966 14.9812C7.29966 10.7274 10.7369 7.2944 14.996 7.2944C19.255 7.2944 22.6923 10.7274 22.6923 14.9812C22.6923 19.235 19.255 22.668 14.996 22.668ZM23.0075 8.77479C22.0131 8.77479 21.2101 7.97275 21.2101 6.97958C21.2101 5.9864 22.0131 5.18437 23.0075 5.18437C24.0019 5.18437 24.8049 5.9864 24.8049 6.97958C24.8052 7.21541 24.7589 7.44899 24.6687 7.66693C24.5785 7.88486 24.4461 8.08288 24.2791 8.24965C24.1122 8.4164 23.9139 8.54863 23.6957 8.63874C23.4775 8.72885 23.2436 8.77509 23.0075 8.77479Z" fill="black"/>
</svg>
