<svg width="40" height="31" viewBox="0 0 40 31" fill="none" xmlns="http://www.w3.org/2000/svg">
<path d="M39.1652 4.73451C38.9375 3.81772 38.491 2.98165 37.8705 2.31C37.25 1.63834 36.4772 1.15465 35.6295 0.907327C32.5089 1.84105e-07 20 0 20 0C20 0 7.49107 -1.84105e-07 4.37054 0.902501C3.52241 1.14902 2.74922 1.63244 2.1286 2.30422C1.50798 2.97601 1.06178 3.81249 0.834821 4.72969C-1.70299e-07 8.10803 0 15.1543 0 15.1543C0 15.1543 -1.70299e-07 22.2006 0.834821 25.5741C1.29464 27.437 2.65179 28.9042 4.37054 29.4013C7.49107 30.3086 20 30.3086 20 30.3086C20 30.3086 32.5089 30.3086 35.6295 29.4013C37.3527 28.9042 38.7054 27.437 39.1652 25.5741C40 22.2006 40 15.1543 40 15.1543C40 15.1543 40 8.10803 39.1652 4.73451ZM16.0268 21.6214V8.68718L26.3839 15.106L16.0268 21.6214Z" fill="black"/>
</svg>
